<svg width="100" height="100" viewBox="0 0 100 100" fill="none" xmlns="http://www.w3.org/2000/svg">
<g clip-path="url(#clip0_1_19)">
<rect width="100" height="100" fill="white"/>
<path d="M89.5 54C89.5 75.8327 72.0218 93.5 50.5 93.5C28.9782 93.5 11.5 75.8327 11.5 54C11.5 32.1673 28.9782 14.5 50.5 14.5C72.0218 14.5 89.5 32.1673 89.5 54Z" stroke="black" stroke-width="3"/>
<path d="M61.5 37C61.5 43.4073 56.5202 48.5 50.5 48.5C44.4798 48.5 39.5 43.4073 39.5 37C39.5 30.5927 44.4798 25.5 50.5 25.5C56.5202 25.5 61.5 30.5927 61.5 37Z" stroke="black" stroke-width="3"/>
<path d="M24 74L25.0822 71.024C34.285 45.7161 70.7492 47.8063 77 74V74" stroke="black" stroke-width="3"/>
</g>
<defs>
<clipPath id="clip0_1_19">
<rect width="100" height="100" fill="white"/>
</clipPath>
</defs>
</svg>
